<svg width="60" height="60" viewBox="0 0 60 60" fill="none" xmlns="http://www.w3.org/2000/svg">
<g id="Frame">
<path id="Vector" d="M52.5 48.75V11.25C52.5 9.17875 50.8213 7.5 48.75 7.5H11.25C9.17875 7.5 7.5 9.17875 7.5 11.25V48.75C7.5 50.8213 9.17875 52.5 11.25 52.5H48.75C50.8213 52.5 52.5 50.8213 52.5 48.75Z" fill="#1C9957"/>
<path id="Vector_2" d="M11.25 52.5H48.75C50.8212 52.5 30 32.5 30 32.5C30 32.5 9.17874 52.5 11.25 52.5Z" fill="#3E7BF1"/>
<path id="Vector_3" d="M52.5 48.7499V11.2499C52.5 9.17862 32.5 29.9999 32.5 29.9999C32.5 29.9999 52.5 50.8211 52.5 48.7499Z" fill="#CBCCC9"/>
<path id="Vector_4" d="M48.75 52.5C50.8212 52.5 52.5 50.8212 52.5 48.75V48.4438L32.8063 28.75L28.75 32.8063L48.4438 52.5H48.75Z" fill="#EFEFEF"/>
<path id="Vector_5" d="M52.5 11.25C52.5 9.17875 50.8213 7.5 48.75 7.5H48.4438L7.5 48.4438V48.75C7.5 50.8213 9.17875 52.5 11.25 52.5H11.5562L52.5 11.5562V11.25Z" fill="#FFD73D"/>
<path id="Vector_6" d="M45 2.5C38.0963 2.5 32.5 8.09625 32.5 15C32.5 23.5163 42.0825 26.6187 44.1663 39.8138C44.3 40.6637 44.31 41.25 45 41.25C45.69 41.25 45.7 40.6637 45.8337 39.8138C47.9175 26.6187 57.5 23.5163 57.5 15C57.5 8.09625 51.9037 2.5 45 2.5Z" fill="#D73F35"/>
<path id="Vector_7" d="M45 10.625C44.4255 10.625 43.8566 10.7382 43.3258 10.958C42.795 11.1779 42.3127 11.5002 41.9064 11.9064C41.5002 12.3127 41.1779 12.795 40.958 13.3258C40.7382 13.8566 40.625 14.4255 40.625 15C40.625 15.5745 40.7382 16.1434 40.958 16.6742C41.1779 17.205 41.5002 17.6873 41.9064 18.0936C42.3127 18.4998 42.795 18.8221 43.3258 19.042C43.8566 19.2618 44.4255 19.375 45 19.375C45.5745 19.375 46.1434 19.2618 46.6742 19.042C47.205 18.8221 47.6873 18.4998 48.0936 18.0936C48.4998 17.6873 48.8221 17.205 49.042 16.6742C49.2618 16.1434 49.375 15.5745 49.375 15C49.375 14.4255 49.2618 13.8566 49.042 13.3258C48.8221 12.795 48.4998 12.3127 48.0936 11.9064C47.6873 11.5002 47.205 11.1779 46.6742 10.958C46.1434 10.7382 45.5745 10.625 45 10.625Z" fill="#752622"/>
<path id="Vector_8" d="M18.1162 15.6637V18.29H21.8587C21.3687 19.8825 20.04 21.0212 18.1162 21.0212C15.825 21.0212 13.9687 19.165 13.9687 16.8737C13.9687 14.5825 15.8262 12.7262 18.1162 12.7262C19.1462 12.7262 20.0862 13.1037 20.8112 13.725L22.7462 11.7912C21.525 10.6787 19.9 10 18.1162 10C14.3187 10 11.24 13.0787 11.24 16.875C11.24 20.6712 14.3187 23.75 18.1162 23.75C24.1287 23.75 25.1625 18.3537 24.5962 15.6737L18.1162 15.6637Z" fill="white"/>
</g>
</svg>
