<svg width="60" height="60" viewBox="0 0 60 60" fill="none" xmlns="http://www.w3.org/2000/svg">
<path d="M53.1634 60H6.83664C3.06086 60 0 56.9391 0 53.1634V6.83664C0 3.06086 3.06086 0 6.83664 0H53.1634C56.9391 0 60 3.06086 60 6.83664V53.1634C60 56.9391 56.9391 60 53.1634 60Z" fill="#15CCFF"/>
<path d="M32.9805 45.5555C32.9805 42.9756 35.0718 40.8843 37.6518 40.8843C40.2321 40.8843 42.3234 42.9756 42.3234 45.5555C42.3234 48.1356 40.2321 50.2269 37.6518 50.2269C35.0718 50.227 32.9805 48.1357 32.9805 45.5555Z" fill="black"/>
<path d="M52.234 25.0933C51.7991 22.5238 50.7766 20.1138 49.1998 17.9294C47.4138 15.4662 44.9739 13.408 42.1423 11.9805C39.2807 10.5365 36.0838 9.77295 32.9003 9.77295C32.004 9.77295 31.0977 9.83272 30.2114 9.95554C26.4967 10.4568 22.8417 12.0004 19.9237 14.3076C16.6339 16.9035 14.5126 20.2432 13.7856 23.9645C13.5699 25.0699 13.4769 26.2915 13.3873 27.4767C13.2479 29.3291 13.1052 31.2412 12.5142 32.4927C12.1125 33.3492 11.5117 33.9202 9.88841 33.9202C8.99545 33.9202 8.1788 34.4248 7.78037 35.2248C7.38204 36.0249 7.46834 36.981 8.00611 37.6913C13.5001 44.9813 22.7554 45.8245 29.2387 45.8245C29.398 45.8245 29.5607 45.8246 29.7167 45.8212H30.6163C30.8254 45.8246 31.0378 45.8245 31.2603 45.8245C34.2812 45.8245 37.4781 45.6752 40.3927 44.5863C42.8226 43.6801 45.1364 42.2161 47.0818 40.3471C49.1865 38.3287 50.7301 35.9452 51.5468 33.4587C52.4696 30.6569 52.6986 27.8453 52.234 25.0933ZM49.3093 32.7218C47.8387 37.2001 43.7356 40.8252 39.5694 42.3787C36.8539 43.3912 33.6803 43.4675 31.2603 43.4675C30.8354 43.4675 30.437 43.4642 30.0652 43.4642C29.939 43.4642 29.8196 43.4675 29.7034 43.4675H29.2387C23.1537 43.4675 14.7516 42.7239 9.88832 36.2738C16.5509 36.2738 15.2363 28.8311 16.0994 24.4159C17.4107 17.687 24.0666 13.1623 30.5267 12.2892C31.3201 12.183 32.1168 12.1299 32.9003 12.1299C43.5165 12.13 52.9642 21.6076 49.3093 32.7218Z" fill="black"/>
<path d="M49.3093 32.7218C47.8386 37.2001 43.7356 40.8251 39.5694 42.3787C36.8539 43.3912 33.6803 43.4675 31.2603 43.4675C30.8353 43.4675 30.437 43.4641 30.0652 43.4641C29.939 43.4641 29.8196 43.4675 29.7034 43.4675H29.2386C23.1537 43.4675 14.7516 42.7239 9.88831 36.2738C16.5509 36.2738 15.2363 28.8311 16.0994 24.4159C17.4107 17.6869 24.0666 13.1623 30.5267 12.2892C31.3201 12.183 32.1167 12.1299 32.9002 12.1299C43.5165 12.13 52.9642 21.6076 49.3093 32.7218Z" fill="white"/>
<path d="M29.8713 23.8655C29.8713 25.115 28.8584 26.1278 27.6088 26.1278C26.3598 26.1278 25.3466 25.115 25.3466 23.8655C25.3466 22.6159 26.3598 21.6035 27.6088 21.6035C28.8584 21.6035 29.8713 22.6159 29.8713 23.8655Z" fill="black"/>
<path d="M40.4407 23.8655C40.4407 25.115 39.4278 26.1278 38.1784 26.1278C36.9292 26.1278 35.916 25.115 35.916 23.8655C35.916 22.6159 36.9291 21.6035 38.1784 21.6035C39.4278 21.6035 40.4407 22.6159 40.4407 23.8655Z" fill="black"/>
<path d="M32.8128 35.9965C28.9791 35.9965 25.526 33.4832 24.8926 30.1936C24.7699 29.5548 25.1881 28.9374 25.8267 28.8146C26.4659 28.691 27.0832 29.1097 27.2061 29.7484C27.5783 31.6829 29.8941 33.719 32.981 33.6388C36.1965 33.5543 38.3207 31.6314 38.7572 29.776C38.9063 29.1428 39.5409 28.7506 40.1737 28.899C40.8067 29.0481 41.1995 29.6822 41.0505 30.3155C40.6943 31.8297 39.7186 33.2335 38.3031 34.2678C36.8291 35.3451 35.0103 35.9419 33.0431 35.9938C32.966 35.9955 32.8894 35.9965 32.8128 35.9965Z" fill="black"/>
<path d="M16.7661 45.5555C16.7661 42.9756 18.8576 40.8843 21.4377 40.8843C24.0177 40.8843 26.109 42.9756 26.109 45.5555C26.109 48.1356 24.0177 50.2269 21.4377 50.2269C18.8576 50.227 16.7661 48.1357 16.7661 45.5555Z" fill="black"/>
</svg>
