<svg width="22" height="24" viewBox="0 0 22 24" fill="none" xmlns="http://www.w3.org/2000/svg">
<path fill-rule="evenodd" clip-rule="evenodd" d="M2.90573 8.42732C2.90573 3.95709 6.52957 0.333252 10.9998 0.333252C15.47 0.333252 19.0939 3.95709 19.0939 8.42732V13.614L21.359 19.7083H0.640625L2.90573 13.614V8.42732ZM10.9998 2.08325C7.49607 2.08325 4.65573 4.92359 4.65573 8.42732V13.9287L3.15802 17.9583H18.8416L17.3439 13.9287V8.42732C17.3439 4.92359 14.5035 2.08325 10.9998 2.08325Z" fill="#EAEAEA"/>
<path fill-rule="evenodd" clip-rule="evenodd" d="M6.43155 19.0972V18.8336H8.18155V19.0972C8.18155 20.6544 9.44386 21.9167 11.001 21.9167C12.5581 21.9167 13.8204 20.6544 13.8204 19.0972V18.8336H15.5704V19.0972C15.5704 21.6209 13.5246 23.6667 11.001 23.6667C8.47736 23.6667 6.43155 21.6209 6.43155 19.0972Z" fill="#EAEAEA"/>
</svg>
